{
	"asset":{
		"generator":"Khronos glTF Blender I/O v4.0.44",
		"version":"2.0"
	},
	"extensionsUsed":[
		"KHR_materials_specular",
		"KHR_materials_ior"
	],
	"scene":0,
	"scenes":[
		{
			"name":"Scene",
			"nodes":[
				0,
				1
			]
		}
	],
	"nodes":[
		{
			"mesh":0,
			"name":"11762_Earrings_v1_l2.001",
			"rotation":[
				-0.021928515285253525,
				0,
				0,
				0.9997595548629761
			],
			"translation":[
				-0.19227412343025208,
				-1.269187092781067,
				-4.055037498474121
			]
		},
		{
			"mesh":1,
			"name":"Cube"
		}
	],
	"materials":[
		{
			"doubleSided":true,
			"extensions":{
				"KHR_materials_specular":{
					"specularFactor":0
				},
				"KHR_materials_ior":{
					"ior":1.4500000476837158
				}
			},
			"name":"11762_Earings_metall.004",
			"pbrMetallicRoughness":{
				"baseColorFactor":[
					0.0017581188585609198,
					0.0017581188585609198,
					0.0017581188585609198,
					1
				],
				"metallicFactor":0
			}
		},
		{
			"doubleSided":true,
			"extensions":{
				"KHR_materials_specular":{
					"specularFactor":0
				},
				"KHR_materials_ior":{
					"ior":1.4500000476837158
				}
			},
			"name":"11762_Earings_beads.004",
			"pbrMetallicRoughness":{
				"baseColorFactor":[
					0.014035603031516075,
					0.03106805495917797,
					0.8004003763198853,
					1
				],
				"metallicFactor":0
			}
		},
		{
			"doubleSided":true,
			"name":"Material",
			"pbrMetallicRoughness":{
				"baseColorFactor":[
					0.800000011920929,
					0.800000011920929,
					0.800000011920929,
					1
				],
				"metallicFactor":0,
				"roughnessFactor":0.5
			}
		}
	],
	"meshes":[
		{
			"name":"11762_Earrings_v1_l2.009",
			"primitives":[
				{
					"attributes":{
						"POSITION":0,
						"NORMAL":1,
						"TEXCOORD_0":2
					},
					"indices":3,
					"material":0
				},
				{
					"attributes":{
						"POSITION":4,
						"NORMAL":5,
						"TEXCOORD_0":6
					},
					"indices":7,
					"material":1
				}
			]
		},
		{
			"name":"Cube",
			"primitives":[
				{
					"attributes":{
						"POSITION":8,
						"NORMAL":9,
						"TEXCOORD_0":10
					},
					"indices":11,
					"material":2
				}
			]
		}
	],
	"accessors":[
		{
			"bufferView":0,
			"componentType":5126,
			"count":320,
			"max":[
				0.8234999775886536,
				3.0471999645233154,
				0.031599998474121094
			],
			"min":[
				-0.12120000272989273,
				0.06459999829530716,
				-0.1770000010728836
			],
			"type":"VEC3"
		},
		{
			"bufferView":1,
			"componentType":5126,
			"count":320,
			"type":"VEC3"
		},
		{
			"bufferView":2,
			"componentType":5126,
			"count":320,
			"type":"VEC2"
		},
		{
			"bufferView":3,
			"componentType":5123,
			"count":741,
			"type":"SCALAR"
		},
		{
			"bufferView":4,
			"componentType":5126,
			"count":10,
			"max":[
				0.5317000150680542,
				1.9431999921798706,
				-0.07169999927282333
			],
			"min":[
				0.21130000054836273,
				1.5078999996185303,
				-0.09149999916553497
			],
			"type":"VEC3"
		},
		{
			"bufferView":5,
			"componentType":5126,
			"count":10,
			"type":"VEC3"
		},
		{
			"bufferView":6,
			"componentType":5126,
			"count":10,
			"type":"VEC2"
		},
		{
			"bufferView":7,
			"componentType":5123,
			"count":12,
			"type":"SCALAR"
		},
		{
			"bufferView":8,
			"componentType":5126,
			"count":24,
			"max":[
				1,
				1,
				1
			],
			"min":[
				-1,
				-1,
				-1
			],
			"type":"VEC3"
		},
		{
			"bufferView":9,
			"componentType":5126,
			"count":24,
			"type":"VEC3"
		},
		{
			"bufferView":10,
			"componentType":5126,
			"count":24,
			"type":"VEC2"
		},
		{
			"bufferView":11,
			"componentType":5123,
			"count":36,
			"type":"SCALAR"
		}
	],
	"bufferViews":[
		{
			"buffer":0,
			"byteLength":3840,
			"byteOffset":0,
			"target":34962
		},
		{
			"buffer":0,
			"byteLength":3840,
			"byteOffset":3840,
			"target":34962
		},
		{
			"buffer":0,
			"byteLength":2560,
			"byteOffset":7680,
			"target":34962
		},
		{
			"buffer":0,
			"byteLength":1482,
			"byteOffset":10240,
			"target":34963
		},
		{
			"buffer":0,
			"byteLength":120,
			"byteOffset":11724,
			"target":34962
		},
		{
			"buffer":0,
			"byteLength":120,
			"byteOffset":11844,
			"target":34962
		},
		{
			"buffer":0,
			"byteLength":80,
			"byteOffset":11964,
			"target":34962
		},
		{
			"buffer":0,
			"byteLength":24,
			"byteOffset":12044,
			"target":34963
		},
		{
			"buffer":0,
			"byteLength":288,
			"byteOffset":12068,
			"target":34962
		},
		{
			"buffer":0,
			"byteLength":288,
			"byteOffset":12356,
			"target":34962
		},
		{
			"buffer":0,
			"byteLength":192,
			"byteOffset":12644,
			"target":34962
		},
		{
			"buffer":0,
			"byteLength":72,
			"byteOffset":12836,
			"target":34963
		}
	],
	"buffers":[
		{
			"byteLength":12908,
			"uri":"one.bin"
		}
	]
}
