{
	"asset":{
		"generator":"Khronos glTF Blender I/O v4.0.44",
		"version":"2.0"
	},
	"extensionsUsed":[
		"KHR_materials_specular",
		"KHR_materials_ior"
	],
	"scene":0,
	"scenes":[
		{
			"name":"Scene",
			"nodes":[
				0
			]
		}
	],
	"nodes":[
		{
			"mesh":0,
			"name":"11762_Earrings_v1_l2",
			"rotation":[
				-0.021928517147898674,
				0,
				0,
				0.9997595548629761
			],
			"translation":[
				-0.19227412343025208,
				-1.759178876876831,
				-0.06435936689376831
			]
		}
	],
	"materials":[
		{
			"doubleSided":true,
			"extensions":{
				"KHR_materials_specular":{
					"specularFactor":0
				},
				"KHR_materials_ior":{
					"ior":1.4500000476837158
				}
			},
			"name":"11762_Earings_metall",
			"pbrMetallicRoughness":{
				"baseColorFactor":[
					0.0017581188585609198,
					0.0017581188585609198,
					0.0017581188585609198,
					1
				],
				"metallicFactor":0
			}
		},
		{
			"doubleSided":true,
			"extensions":{
				"KHR_materials_specular":{
					"specularFactor":0
				},
				"KHR_materials_ior":{
					"ior":1.4500000476837158
				}
			},
			"name":"11762_Earings_beads",
			"pbrMetallicRoughness":{
				"baseColorFactor":[
					0.014035603031516075,
					0.03106805495917797,
					0.8004003763198853,
					1
				],
				"metallicFactor":0
			}
		}
	],
	"meshes":[
		{
			"name":"11762_Earrings_v1_l2",
			"primitives":[
				{
					"attributes":{
						"POSITION":0,
						"NORMAL":1,
						"TEXCOORD_0":2
					},
					"indices":3,
					"material":0
				},
				{
					"attributes":{
						"POSITION":4,
						"NORMAL":5,
						"TEXCOORD_0":6
					},
					"indices":7,
					"material":1
				}
			]
		}
	],
	"accessors":[
		{
			"bufferView":0,
			"componentType":5126,
			"count":69640,
			"max":[
				0.8248999714851379,
				3.0550999641418457,
				0.5270000100135803
			],
			"min":[
				-0.7447999715805054,
				-0.02329999953508377,
				-0.23680000007152557
			],
			"type":"VEC3"
		},
		{
			"bufferView":1,
			"componentType":5126,
			"count":69640,
			"type":"VEC3"
		},
		{
			"bufferView":2,
			"componentType":5126,
			"count":69640,
			"type":"VEC2"
		},
		{
			"bufferView":3,
			"componentType":5125,
			"count":309792,
			"type":"SCALAR"
		},
		{
			"bufferView":4,
			"componentType":5126,
			"count":5238,
			"max":[
				0.5382000207901001,
				1.9611999988555908,
				0.3231000006198883
			],
			"min":[
				-0.5378999710083008,
				1.4716999530792236,
				-0.15850000083446503
			],
			"type":"VEC3"
		},
		{
			"bufferView":5,
			"componentType":5126,
			"count":5238,
			"type":"VEC3"
		},
		{
			"bufferView":6,
			"componentType":5126,
			"count":5238,
			"type":"VEC2"
		},
		{
			"bufferView":7,
			"componentType":5123,
			"count":23040,
			"type":"SCALAR"
		}
	],
	"bufferViews":[
		{
			"buffer":0,
			"byteLength":835680,
			"byteOffset":0,
			"target":34962
		},
		{
			"buffer":0,
			"byteLength":835680,
			"byteOffset":835680,
			"target":34962
		},
		{
			"buffer":0,
			"byteLength":557120,
			"byteOffset":1671360,
			"target":34962
		},
		{
			"buffer":0,
			"byteLength":1239168,
			"byteOffset":2228480,
			"target":34963
		},
		{
			"buffer":0,
			"byteLength":62856,
			"byteOffset":3467648,
			"target":34962
		},
		{
			"buffer":0,
			"byteLength":62856,
			"byteOffset":3530504,
			"target":34962
		},
		{
			"buffer":0,
			"byteLength":41904,
			"byteOffset":3593360,
			"target":34962
		},
		{
			"buffer":0,
			"byteLength":46080,
			"byteOffset":3635264,
			"target":34963
		}
	],
	"buffers":[
		{
			"byteLength":3681344,
			"uri":"untitled20.bin"
		}
	]
}
