{
	"asset":{
		"generator":"Khronos glTF Blender I/O v4.0.44",
		"version":"2.0"
	},
	"extensionsUsed":[
		"KHR_materials_specular",
		"KHR_materials_ior"
	],
	"scene":0,
	"scenes":[
		{
			"name":"Scene",
			"nodes":[
				0
			]
		}
	],
	"nodes":[
		{
			"mesh":0,
			"name":"11762_Earrings_v1_l2.001",
			"rotation":[
				-0.021928515285253525,
				0,
				0,
				0.9997595548629761
			],
			"translation":[
				-0.19227412343025208,
				-1.759178876876831,
				-0.06435936689376831
			]
		}
	],
	"materials":[
		{
			"doubleSided":true,
			"extensions":{
				"KHR_materials_specular":{
					"specularFactor":0
				},
				"KHR_materials_ior":{
					"ior":1.4500000476837158
				}
			},
			"name":"11762_Earings_metall",
			"pbrMetallicRoughness":{
				"baseColorFactor":[
					0.0017581188585609198,
					0.0017581188585609198,
					0.0017581188585609198,
					1
				],
				"metallicFactor":0
			}
		},
		{
			"doubleSided":true,
			"extensions":{
				"KHR_materials_specular":{
					"specularFactor":0
				},
				"KHR_materials_ior":{
					"ior":1.4500000476837158
				}
			},
			"name":"11762_Earings_beads",
			"pbrMetallicRoughness":{
				"baseColorFactor":[
					0.014035603031516075,
					0.03106805495917797,
					0.8004003763198853,
					1
				],
				"metallicFactor":0
			}
		}
	],
	"meshes":[
		{
			"name":"11762_Earrings_v1_l2.001",
			"primitives":[
				{
					"attributes":{
						"POSITION":0,
						"NORMAL":1,
						"TEXCOORD_0":2
					},
					"indices":3,
					"material":0
				},
				{
					"attributes":{
						"POSITION":4,
						"NORMAL":5,
						"TEXCOORD_0":6
					},
					"indices":7,
					"material":1
				}
			]
		}
	],
	"accessors":[
		{
			"bufferView":0,
			"componentType":5126,
			"count":1072,
			"max":[
				0.8248999714851379,
				3.0541000366210938,
				0.041999999433755875
			],
			"min":[
				-0.12120000272989273,
				0.030400000512599945,
				-0.2296999990940094
			],
			"type":"VEC3"
		},
		{
			"bufferView":1,
			"componentType":5126,
			"count":1072,
			"type":"VEC3"
		},
		{
			"bufferView":2,
			"componentType":5126,
			"count":1072,
			"type":"VEC2"
		},
		{
			"bufferView":3,
			"componentType":5123,
			"count":2352,
			"type":"SCALAR"
		},
		{
			"bufferView":4,
			"componentType":5126,
			"count":137,
			"max":[
				0.5382000207901001,
				1.954300045967102,
				-0.06210000067949295
			],
			"min":[
				0.17260000109672546,
				1.4867000579833984,
				-0.13940000534057617
			],
			"type":"VEC3"
		},
		{
			"bufferView":5,
			"componentType":5126,
			"count":137,
			"type":"VEC3"
		},
		{
			"bufferView":6,
			"componentType":5126,
			"count":137,
			"type":"VEC2"
		},
		{
			"bufferView":7,
			"componentType":5123,
			"count":384,
			"type":"SCALAR"
		}
	],
	"bufferViews":[
		{
			"buffer":0,
			"byteLength":12864,
			"byteOffset":0,
			"target":34962
		},
		{
			"buffer":0,
			"byteLength":12864,
			"byteOffset":12864,
			"target":34962
		},
		{
			"buffer":0,
			"byteLength":8576,
			"byteOffset":25728,
			"target":34962
		},
		{
			"buffer":0,
			"byteLength":4704,
			"byteOffset":34304,
			"target":34963
		},
		{
			"buffer":0,
			"byteLength":1644,
			"byteOffset":39008,
			"target":34962
		},
		{
			"buffer":0,
			"byteLength":1644,
			"byteOffset":40652,
			"target":34962
		},
		{
			"buffer":0,
			"byteLength":1096,
			"byteOffset":42296,
			"target":34962
		},
		{
			"buffer":0,
			"byteLength":768,
			"byteOffset":43392,
			"target":34963
		}
	],
	"buffers":[
		{
			"byteLength":44160,
			"uri":"acha%20wala.bin"
		}
	]
}
