{
	"asset":{
		"generator":"Khronos glTF Blender I/O v4.0.44",
		"version":"2.0"
	},
	"extensionsUsed":[
		"KHR_materials_specular",
		"KHR_materials_ior"
	],
	"scene":0,
	"scenes":[
		{
			"name":"Scene",
			"nodes":[
				0
			]
		}
	],
	"nodes":[
		{
			"mesh":0,
			"name":"11762_Earrings_v1_l2.001",
			"rotation":[
				-0.02037086896598339,
				0.37007424235343933,
				0.008117132820189,
				0.9287434816360474
			],
			"translation":[
				-0.19227412343025208,
				-1.759178876876831,
				-0.06435936689376831
			]
		}
	],
	"materials":[
		{
			"doubleSided":true,
			"extensions":{
				"KHR_materials_specular":{
					"specularFactor":0
				},
				"KHR_materials_ior":{
					"ior":1.4500000476837158
				}
			},
			"name":"11762_Earings_metall.001",
			"pbrMetallicRoughness":{
				"baseColorFactor":[
					0.0017581188585609198,
					0.0017581188585609198,
					0.0017581188585609198,
					1
				],
				"metallicFactor":0
			}
		},
		{
			"doubleSided":true,
			"extensions":{
				"KHR_materials_specular":{
					"specularFactor":0
				},
				"KHR_materials_ior":{
					"ior":1.4500000476837158
				}
			},
			"name":"11762_Earings_beads.001",
			"pbrMetallicRoughness":{
				"baseColorFactor":[
					0.014035603031516075,
					0.03106805495917797,
					0.8004003763198853,
					1
				],
				"metallicFactor":0
			}
		}
	],
	"meshes":[
		{
			"name":"11762_Earrings_v1_l2.002",
			"primitives":[
				{
					"attributes":{
						"POSITION":0,
						"NORMAL":1,
						"TEXCOORD_0":2
					},
					"indices":3,
					"material":0
				},
				{
					"attributes":{
						"POSITION":4,
						"NORMAL":5,
						"TEXCOORD_0":6
					},
					"indices":7,
					"material":1
				}
			]
		}
	],
	"accessors":[
		{
			"bufferView":0,
			"componentType":5126,
			"count":1353,
			"max":[
				0.8248999714851379,
				3.0550999641418457,
				0.0421999990940094
			],
			"min":[
				-0.13529999554157257,
				0.06840000301599503,
				-0.2224999964237213
			],
			"type":"VEC3"
		},
		{
			"bufferView":1,
			"componentType":5126,
			"count":1353,
			"type":"VEC3"
		},
		{
			"bufferView":2,
			"componentType":5126,
			"count":1353,
			"type":"VEC2"
		},
		{
			"bufferView":3,
			"componentType":5123,
			"count":3087,
			"type":"SCALAR"
		},
		{
			"bufferView":4,
			"componentType":5126,
			"count":142,
			"max":[
				0.5353999733924866,
				1.955299973487854,
				-0.06210000067949295
			],
			"min":[
				0.16580000519752502,
				1.4871000051498413,
				-0.11429999768733978
			],
			"type":"VEC3"
		},
		{
			"bufferView":5,
			"componentType":5126,
			"count":142,
			"type":"VEC3"
		},
		{
			"bufferView":6,
			"componentType":5126,
			"count":142,
			"type":"VEC2"
		},
		{
			"bufferView":7,
			"componentType":5123,
			"count":402,
			"type":"SCALAR"
		}
	],
	"bufferViews":[
		{
			"buffer":0,
			"byteLength":16236,
			"byteOffset":0,
			"target":34962
		},
		{
			"buffer":0,
			"byteLength":16236,
			"byteOffset":16236,
			"target":34962
		},
		{
			"buffer":0,
			"byteLength":10824,
			"byteOffset":32472,
			"target":34962
		},
		{
			"buffer":0,
			"byteLength":6174,
			"byteOffset":43296,
			"target":34963
		},
		{
			"buffer":0,
			"byteLength":1704,
			"byteOffset":49472,
			"target":34962
		},
		{
			"buffer":0,
			"byteLength":1704,
			"byteOffset":51176,
			"target":34962
		},
		{
			"buffer":0,
			"byteLength":1136,
			"byteOffset":52880,
			"target":34962
		},
		{
			"buffer":0,
			"byteLength":804,
			"byteOffset":54016,
			"target":34963
		}
	],
	"buffers":[
		{
			"byteLength":54820,
			"uri":"aikaur.bin"
		}
	]
}
