{
	"asset":{
		"generator":"Khronos glTF Blender I/O v4.0.44",
		"version":"2.0"
	},
	"extensionsUsed":[
		"KHR_materials_transmission",
		"KHR_materials_specular"
	],
	"scene":0,
	"scenes":[
		{
			"name":"Scene",
			"nodes":[
				0
			]
		}
	],
	"nodes":[
		{
			"mesh":0,
			"name":"11761_Earrings_v1_l2",
			"rotation":[
				0.7071068286895752,
				0,
				0,
				0.7071068286895752
			]
		}
	],
	"materials":[
		{
			"doubleSided":true,
			"extensions":{
				"KHR_materials_transmission":{
					"transmissionFactor":1
				},
				"KHR_materials_specular":{
					"specularColorFactor":[
						1.1666666269302368,
						1.1666666269302368,
						1.1666666269302368
					]
				}
			},
			"name":"Earings_sliver",
			"pbrMetallicRoughness":{
				"baseColorFactor":[
					0.63919997215271,
					0.7254999876022339,
					0.7254999876022339,
					1
				],
				"metallicFactor":0,
				"roughnessFactor":0.7719649076461792
			}
		}
	],
	"meshes":[
		{
			"name":"11761_Earrings_v1_l2",
			"primitives":[
				{
					"attributes":{
						"POSITION":0,
						"NORMAL":1,
						"TEXCOORD_0":2
					},
					"indices":3,
					"material":0
				}
			]
		}
	],
	"accessors":[
		{
			"bufferView":0,
			"componentType":5126,
			"count":43450,
			"max":[
				0.09369999915361404,
				0.2913999855518341,
				1.517699956893921
			],
			"min":[
				-0.09359999746084213,
				-0.2896000146865845,
				-1.5095000267028809
			],
			"type":"VEC3"
		},
		{
			"bufferView":1,
			"componentType":5126,
			"count":43450,
			"type":"VEC3"
		},
		{
			"bufferView":2,
			"componentType":5126,
			"count":43450,
			"type":"VEC2"
		},
		{
			"bufferView":3,
			"componentType":5123,
			"count":181272,
			"type":"SCALAR"
		}
	],
	"bufferViews":[
		{
			"buffer":0,
			"byteLength":521400,
			"byteOffset":0,
			"target":34962
		},
		{
			"buffer":0,
			"byteLength":521400,
			"byteOffset":521400,
			"target":34962
		},
		{
			"buffer":0,
			"byteLength":347600,
			"byteOffset":1042800,
			"target":34962
		},
		{
			"buffer":0,
			"byteLength":362544,
			"byteOffset":1390400,
			"target":34963
		}
	],
	"buffers":[
		{
			"byteLength":1752944,
			"uri":"earing011.bin"
		}
	]
}
