{
	"asset":{
		"generator":"Khronos glTF Blender I/O v4.0.44",
		"version":"2.0"
	},
	"extensionsUsed":[
		"KHR_materials_specular",
		"KHR_materials_ior"
	],
	"scene":0,
	"scenes":[
		{
			"name":"Scene",
			"nodes":[
				0
			]
		}
	],
	"nodes":[
		{
			"mesh":0,
			"name":"11762_Earrings_v1_l2.001",
			"rotation":[
				-0.021928515285253525,
				0,
				0,
				0.9997595548629761
			],
			"translation":[
				-0.19227412343025208,
				-1.759178876876831,
				-0.06435936689376831
			]
		}
	],
	"materials":[
		{
			"doubleSided":true,
			"extensions":{
				"KHR_materials_specular":{
					"specularFactor":0
				},
				"KHR_materials_ior":{
					"ior":1.4500000476837158
				}
			},
			"name":"11762_Earings_metall",
			"pbrMetallicRoughness":{
				"baseColorFactor":[
					0.0017581188585609198,
					0.0017581188585609198,
					0.0017581188585609198,
					1
				],
				"metallicFactor":0
			}
		},
		{
			"doubleSided":true,
			"extensions":{
				"KHR_materials_specular":{
					"specularFactor":0
				},
				"KHR_materials_ior":{
					"ior":1.4500000476837158
				}
			},
			"name":"11762_Earings_beads",
			"pbrMetallicRoughness":{
				"baseColorFactor":[
					0.014035603031516075,
					0.03106805495917797,
					0.8004003763198853,
					1
				],
				"metallicFactor":0
			}
		}
	],
	"meshes":[
		{
			"name":"11762_Earrings_v1_l2.001",
			"primitives":[
				{
					"attributes":{
						"POSITION":0,
						"NORMAL":1,
						"TEXCOORD_0":2
					},
					"indices":3,
					"material":0
				},
				{
					"attributes":{
						"POSITION":4,
						"NORMAL":5,
						"TEXCOORD_0":6
					},
					"indices":7,
					"material":1
				}
			]
		}
	],
	"accessors":[
		{
			"bufferView":0,
			"componentType":5126,
			"count":1013,
			"max":[
				0.8248999714851379,
				3.0550999641418457,
				0.041999999433755875
			],
			"min":[
				-0.12530000507831573,
				0.00930000003427267,
				-0.15729999542236328
			],
			"type":"VEC3"
		},
		{
			"bufferView":1,
			"componentType":5126,
			"count":1013,
			"type":"VEC3"
		},
		{
			"bufferView":2,
			"componentType":5126,
			"count":1013,
			"type":"VEC2"
		},
		{
			"bufferView":3,
			"componentType":5123,
			"count":2154,
			"type":"SCALAR"
		},
		{
			"bufferView":4,
			"componentType":5126,
			"count":108,
			"max":[
				0.5353999733924866,
				1.9501999616622925,
				-0.06210000067949295
			],
			"min":[
				0.17919999361038208,
				1.4882999658584595,
				-0.11479999870061874
			],
			"type":"VEC3"
		},
		{
			"bufferView":5,
			"componentType":5126,
			"count":108,
			"type":"VEC3"
		},
		{
			"bufferView":6,
			"componentType":5126,
			"count":108,
			"type":"VEC2"
		},
		{
			"bufferView":7,
			"componentType":5123,
			"count":288,
			"type":"SCALAR"
		}
	],
	"bufferViews":[
		{
			"buffer":0,
			"byteLength":12156,
			"byteOffset":0,
			"target":34962
		},
		{
			"buffer":0,
			"byteLength":12156,
			"byteOffset":12156,
			"target":34962
		},
		{
			"buffer":0,
			"byteLength":8104,
			"byteOffset":24312,
			"target":34962
		},
		{
			"buffer":0,
			"byteLength":4308,
			"byteOffset":32416,
			"target":34963
		},
		{
			"buffer":0,
			"byteLength":1296,
			"byteOffset":36724,
			"target":34962
		},
		{
			"buffer":0,
			"byteLength":1296,
			"byteOffset":38020,
			"target":34962
		},
		{
			"buffer":0,
			"byteLength":864,
			"byteOffset":39316,
			"target":34962
		},
		{
			"buffer":0,
			"byteLength":576,
			"byteOffset":40180,
			"target":34963
		}
	],
	"buffers":[
		{
			"byteLength":40756,
			"uri":"earing1.bin"
		}
	]
}
