{
	"asset":{
		"generator":"Khronos glTF Blender I/O v4.0.44",
		"version":"2.0"
	},
	"scene":0,
	"scenes":[
		{
			"name":"Scene",
			"nodes":[
				0,
				1
			]
		}
	],
	"nodes":[
		{
			"mesh":0,
			"name":"1",
			"rotation":[
				0.03179085627198219,
				0,
				0,
				0.9994945526123047
			],
			"translation":[
				10.444437026977539,
				-2.406641960144043,
				-13.013806343078613
			]
		},
		{
			"mesh":1,
			"name":"2",
			"rotation":[
				0.7071068286895752,
				0,
				0,
				0.7071068286895752
			],
			"translation":[
				10.181489944458008,
				9.709443092346191,
				-11.416686058044434
			]
		}
	],
	"materials":[
		{
			"doubleSided":true,
			"name":"Material.002",
			"pbrMetallicRoughness":{
				"baseColorFactor":[
					0.8015850782394409,
					0.46671262383461,
					0.030295073986053467,
					1
				],
				"metallicFactor":0,
				"roughnessFactor":0.5
			}
		},
		{
			"doubleSided":true,
			"name":"Material.001",
			"pbrMetallicRoughness":{
				"baseColorFactor":[
					0.8019999861717224,
					0.46561554074287415,
					0.03047598898410797,
					1
				],
				"metallicFactor":0,
				"roughnessFactor":0.5
			}
		}
	],
	"meshes":[
		{
			"name":"1",
			"primitives":[
				{
					"attributes":{
						"POSITION":0,
						"NORMAL":1,
						"TEXCOORD_0":2
					},
					"indices":3,
					"material":0
				}
			]
		},
		{
			"name":"2.001",
			"primitives":[
				{
					"attributes":{
						"POSITION":4,
						"NORMAL":5,
						"TEXCOORD_0":6
					},
					"indices":7,
					"material":1
				}
			]
		}
	],
	"accessors":[
		{
			"bufferView":0,
			"componentType":5126,
			"count":70851,
			"max":[
				6.112234592437744,
				13.438066482543945,
				6.124495029449463
			],
			"min":[
				-6.112234592437744,
				-5.408897399902344,
				-6.124495029449463
			],
			"type":"VEC3"
		},
		{
			"bufferView":1,
			"componentType":5126,
			"count":70851,
			"type":"VEC3"
		},
		{
			"bufferView":2,
			"componentType":5126,
			"count":70851,
			"type":"VEC2"
		},
		{
			"bufferView":3,
			"componentType":5125,
			"count":209964,
			"type":"SCALAR"
		},
		{
			"bufferView":4,
			"componentType":5126,
			"count":11631,
			"max":[
				1.6438626050949097,
				1.7200405597686768,
				1.131487250328064
			],
			"min":[
				-1.6626269817352295,
				-2.5675039291381836,
				-12.066530227661133
			],
			"type":"VEC3"
		},
		{
			"bufferView":5,
			"componentType":5126,
			"count":11631,
			"type":"VEC3"
		},
		{
			"bufferView":6,
			"componentType":5126,
			"count":11631,
			"type":"VEC2"
		},
		{
			"bufferView":7,
			"componentType":5123,
			"count":31122,
			"type":"SCALAR"
		}
	],
	"bufferViews":[
		{
			"buffer":0,
			"byteLength":850212,
			"byteOffset":0,
			"target":34962
		},
		{
			"buffer":0,
			"byteLength":850212,
			"byteOffset":850212,
			"target":34962
		},
		{
			"buffer":0,
			"byteLength":566808,
			"byteOffset":1700424,
			"target":34962
		},
		{
			"buffer":0,
			"byteLength":839856,
			"byteOffset":2267232,
			"target":34963
		},
		{
			"buffer":0,
			"byteLength":139572,
			"byteOffset":3107088,
			"target":34962
		},
		{
			"buffer":0,
			"byteLength":139572,
			"byteOffset":3246660,
			"target":34962
		},
		{
			"buffer":0,
			"byteLength":93048,
			"byteOffset":3386232,
			"target":34962
		},
		{
			"buffer":0,
			"byteLength":62244,
			"byteOffset":3479280,
			"target":34963
		}
	],
	"buffers":[
		{
			"byteLength":3541524,
			"uri":"golden.bin"
		}
	]
}
