{
	"asset":{
		"generator":"Khronos glTF Blender I/O v4.0.44",
		"version":"2.0"
	},
	"scene":0,
	"scenes":[
		{
			"name":"Scene",
			"nodes":[
				0
			]
		}
	],
	"nodes":[
		{
			"mesh":0,
			"name":"1",
			"rotation":[
				0.03179085627198219,
				0,
				0,
				0.9994945526123047
			],
			"scale":[
				0.125,
				0.125,
				0.125
			],
			"translation":[
				0.016682088375091553,
				-2.206981658935547,
				-0.10834110528230667
			]
		}
	],
	"materials":[
		{
			"doubleSided":true,
			"name":"Material.002",
			"pbrMetallicRoughness":{
				"baseColorFactor":[
					0.8015850782394409,
					0.46671262383461,
					0.030295073986053467,
					1
				],
				"metallicFactor":0,
				"roughnessFactor":0.5
			}
		},
		{
			"doubleSided":true,
			"name":"Material.001",
			"pbrMetallicRoughness":{
				"baseColorFactor":[
					0.8019999861717224,
					0.46561554074287415,
					0.03047598898410797,
					1
				],
				"metallicFactor":0,
				"roughnessFactor":0.5
			}
		}
	],
	"meshes":[
		{
			"name":"1",
			"primitives":[
				{
					"attributes":{
						"POSITION":0,
						"NORMAL":1,
						"TEXCOORD_0":2
					},
					"indices":3,
					"material":0
				},
				{
					"attributes":{
						"POSITION":4,
						"NORMAL":5,
						"TEXCOORD_0":6
					},
					"indices":7,
					"material":1
				}
			]
		}
	],
	"accessors":[
		{
			"bufferView":0,
			"componentType":5126,
			"count":71729,
			"max":[
				6.099301338195801,
				9.8557710647583,
				6.027590751647949
			],
			"min":[
				-6.1251678466796875,
				-8.991192817687988,
				-6.221399307250977
			],
			"type":"VEC3"
		},
		{
			"bufferView":1,
			"componentType":5126,
			"count":71729,
			"type":"VEC3"
		},
		{
			"bufferView":2,
			"componentType":5126,
			"count":71729,
			"type":"VEC2"
		},
		{
			"bufferView":3,
			"componentType":5125,
			"count":209964,
			"type":"SCALAR"
		},
		{
			"bufferView":4,
			"componentType":5126,
			"count":13397,
			"max":[
				1.7148752212524414,
				20.907001495361328,
				2.630284547805786
			],
			"min":[
				-1.5916143655776978,
				7.523286819458008,
				-2.4744224548339844
			],
			"type":"VEC3"
		},
		{
			"bufferView":5,
			"componentType":5126,
			"count":13397,
			"type":"VEC3"
		},
		{
			"bufferView":6,
			"componentType":5126,
			"count":13397,
			"type":"VEC2"
		},
		{
			"bufferView":7,
			"componentType":5123,
			"count":31122,
			"type":"SCALAR"
		}
	],
	"bufferViews":[
		{
			"buffer":0,
			"byteLength":860748,
			"byteOffset":0,
			"target":34962
		},
		{
			"buffer":0,
			"byteLength":860748,
			"byteOffset":860748,
			"target":34962
		},
		{
			"buffer":0,
			"byteLength":573832,
			"byteOffset":1721496,
			"target":34962
		},
		{
			"buffer":0,
			"byteLength":839856,
			"byteOffset":2295328,
			"target":34963
		},
		{
			"buffer":0,
			"byteLength":160764,
			"byteOffset":3135184,
			"target":34962
		},
		{
			"buffer":0,
			"byteLength":160764,
			"byteOffset":3295948,
			"target":34962
		},
		{
			"buffer":0,
			"byteLength":107176,
			"byteOffset":3456712,
			"target":34962
		},
		{
			"buffer":0,
			"byteLength":62244,
			"byteOffset":3563888,
			"target":34963
		}
	],
	"buffers":[
		{
			"byteLength":3626132,
			"uri":"golden.bin"
		}
	]
}
