{
	"asset":{
		"generator":"Khronos glTF Blender I/O v4.0.44",
		"version":"2.0"
	},
	"scene":0,
	"scenes":[
		{
			"name":"Scene",
			"nodes":[
				0
			]
		}
	],
	"nodes":[
		{
			"mesh":0,
			"name":"uploads_files_2779804_03",
			"rotation":[
				0,
				-0.694658637046814,
				0,
				0.7193396091461182
			],
			"scale":[
				0.07000000029802322,
				0.07000000029802322,
				0.07000000029802322
			]
		}
	],
	"meshes":[
		{
			"name":"uploads_files_2779804_03",
			"primitives":[
				{
					"attributes":{
						"POSITION":0,
						"NORMAL":1
					},
					"indices":2
				}
			]
		}
	],
	"accessors":[
		{
			"bufferView":0,
			"componentType":5126,
			"count":154476,
			"max":[
				7.9257073402404785,
				7.5036396980285645,
				2.708599328994751
			],
			"min":[
				-7.6854095458984375,
				-7.850545883178711,
				-2.708599328994751
			],
			"type":"VEC3"
		},
		{
			"bufferView":1,
			"componentType":5126,
			"count":154476,
			"type":"VEC3"
		},
		{
			"bufferView":2,
			"componentType":5125,
			"count":926955,
			"type":"SCALAR"
		}
	],
	"bufferViews":[
		{
			"buffer":0,
			"byteLength":1853712,
			"byteOffset":0,
			"target":34962
		},
		{
			"buffer":0,
			"byteLength":1853712,
			"byteOffset":1853712,
			"target":34962
		},
		{
			"buffer":0,
			"byteLength":3707820,
			"byteOffset":3707424,
			"target":34963
		}
	],
	"buffers":[
		{
			"byteLength":7415244,
			"uri":"hoopEarring.bin"
		}
	]
}
