{
	"asset":{
		"generator":"Khronos glTF Blender I/O v4.0.44",
		"version":"2.0"
	},
	"extensionsUsed":[
		"KHR_materials_transmission",
		"KHR_materials_specular"
	],
	"scene":0,
	"scenes":[
		{
			"name":"Scene",
			"nodes":[
				0
			]
		}
	],
	"nodes":[
		{
			"mesh":0,
			"name":"11757_Earings_v1_L2.001",
			"rotation":[
				0.70710688829422,
				0,
				0,
				0.7071066498756409
			]
		}
	],
	"materials":[
		{
			"doubleSided":true,
			"extensions":{
				"KHR_materials_transmission":{
					"transmissionFactor":1
				},
				"KHR_materials_specular":{
					"specularColorFactor":[
						1.565999984741211,
						1.565999984741211,
						1.565999984741211
					]
				}
			},
			"name":"gold.001",
			"pbrMetallicRoughness":{
				"baseColorFactor":[
					0.7020000219345093,
					0.4235000014305115,
					0.07450000196695328,
					1
				],
				"metallicFactor":0,
				"roughnessFactor":0.745048999786377
			}
		},
		{
			"doubleSided":true,
			"extensions":{
				"KHR_materials_transmission":{
					"transmissionFactor":1
				},
				"KHR_materials_specular":{
					"specularColorFactor":[
						1.403999924659729,
						1.403999924659729,
						1.403999924659729
					]
				}
			},
			"name":"pearl.001",
			"pbrMetallicRoughness":{
				"baseColorTexture":{
					"index":0
				},
				"metallicFactor":0,
				"roughnessFactor":0.8387548327445984
			}
		}
	],
	"meshes":[
		{
			"name":"11757_Earings_v1_L2.001",
			"primitives":[
				{
					"attributes":{
						"POSITION":0,
						"NORMAL":1,
						"TEXCOORD_0":2
					},
					"indices":3,
					"material":0
				},
				{
					"attributes":{
						"POSITION":4,
						"NORMAL":5,
						"TEXCOORD_0":6
					},
					"indices":7,
					"material":1
				}
			]
		}
	],
	"textures":[
		{
			"sampler":0,
			"source":0
		}
	],
	"images":[
		{
			"mimeType":"image/jpeg",
			"name":"11757_Earings_v1_diffuse",
			"uri":"11757_Earings_v1_diffuse.jpg"
		}
	],
	"accessors":[
		{
			"bufferView":0,
			"componentType":5126,
			"count":11130,
			"max":[
				0.13081109523773193,
				4.08309268951416,
				0.07094497978687286
			],
			"min":[
				-0.13082024455070496,
				3.6649742126464844,
				-0.07094007730484009
			],
			"type":"VEC3"
		},
		{
			"bufferView":1,
			"componentType":5126,
			"count":11130,
			"type":"VEC3"
		},
		{
			"bufferView":2,
			"componentType":5126,
			"count":11130,
			"type":"VEC2"
		},
		{
			"bufferView":3,
			"componentType":5123,
			"count":60528,
			"type":"SCALAR"
		},
		{
			"bufferView":4,
			"componentType":5126,
			"count":6530,
			"max":[
				0.19604671001434326,
				4.466585636138916,
				0.19605374336242676
			],
			"min":[
				-0.19605588912963867,
				4.08309268951416,
				-0.19604885578155518
			],
			"type":"VEC3"
		},
		{
			"bufferView":5,
			"componentType":5126,
			"count":6530,
			"type":"VEC3"
		},
		{
			"bufferView":6,
			"componentType":5126,
			"count":6530,
			"type":"VEC2"
		},
		{
			"bufferView":7,
			"componentType":5123,
			"count":38160,
			"type":"SCALAR"
		}
	],
	"bufferViews":[
		{
			"buffer":0,
			"byteLength":133560,
			"byteOffset":0,
			"target":34962
		},
		{
			"buffer":0,
			"byteLength":133560,
			"byteOffset":133560,
			"target":34962
		},
		{
			"buffer":0,
			"byteLength":89040,
			"byteOffset":267120,
			"target":34962
		},
		{
			"buffer":0,
			"byteLength":121056,
			"byteOffset":356160,
			"target":34963
		},
		{
			"buffer":0,
			"byteLength":78360,
			"byteOffset":477216,
			"target":34962
		},
		{
			"buffer":0,
			"byteLength":78360,
			"byteOffset":555576,
			"target":34962
		},
		{
			"buffer":0,
			"byteLength":52240,
			"byteOffset":633936,
			"target":34962
		},
		{
			"buffer":0,
			"byteLength":76320,
			"byteOffset":686176,
			"target":34963
		}
	],
	"samplers":[
		{
			"magFilter":9729,
			"minFilter":9987
		}
	],
	"buffers":[
		{
			"byteLength":762496,
			"uri":"pearl.bin"
		}
	]
}
