{
	"asset":{
		"generator":"Khronos glTF Blender I/O v4.0.44",
		"version":"2.0"
	},
	"extensionsUsed":[
		"KHR_materials_specular",
		"KHR_materials_ior"
	],
	"scene":0,
	"scenes":[
		{
			"name":"Scene",
			"nodes":[
				0,
				1,
				2,
				3
			]
		}
	],
	"nodes":[
		{
			"mesh":0,
			"name":"11762_Earrings_v1_l2.001",
			"rotation":[
				-0.021928515285253525,
				0,
				0,
				0.9997595548629761
			],
			"translation":[
				-0.19227412343025208,
				-1.759178876876831,
				-0.08598160743713379
			]
		},
		{
			"mesh":1,
			"name":"11762_Earrings_v1_l2",
			"rotation":[
				-0.021928517147898674,
				0,
				0,
				0.9997595548629761
			],
			"translation":[
				-0.19227412343025208,
				-1.759178876876831,
				-0.06435936689376831
			]
		},
		{
			"mesh":2,
			"name":"11762_Earrings_v1_l2.002",
			"rotation":[
				-0.021928517147898674,
				0,
				0,
				0.9997595548629761
			],
			"translation":[
				-0.19227412343025208,
				-1.759178876876831,
				-0.06435936689376831
			]
		},
		{
			"mesh":3,
			"name":"11762_Earrings_v1_l2.003",
			"rotation":[
				-0.021928517147898674,
				0,
				0,
				0.9997595548629761
			],
			"translation":[
				-0.19227412343025208,
				-1.759178876876831,
				-0.06435936689376831
			]
		}
	],
	"materials":[
		{
			"doubleSided":true,
			"extensions":{
				"KHR_materials_specular":{
					"specularFactor":0
				},
				"KHR_materials_ior":{
					"ior":1.4500000476837158
				}
			},
			"name":"11762_Earings_metall.001",
			"pbrMetallicRoughness":{
				"baseColorFactor":[
					0.0017581188585609198,
					0.0017581188585609198,
					0.0017581188585609198,
					1
				],
				"metallicFactor":0
			}
		},
		{
			"doubleSided":true,
			"extensions":{
				"KHR_materials_specular":{
					"specularFactor":0
				},
				"KHR_materials_ior":{
					"ior":1.4500000476837158
				}
			},
			"name":"11762_Earings_beads.001",
			"pbrMetallicRoughness":{
				"baseColorFactor":[
					0.014035603031516075,
					0.03106805495917797,
					0.8004003763198853,
					1
				],
				"metallicFactor":0
			}
		},
		{
			"doubleSided":true,
			"extensions":{
				"KHR_materials_specular":{
					"specularFactor":0
				},
				"KHR_materials_ior":{
					"ior":1.4500000476837158
				}
			},
			"name":"11762_Earings_metall",
			"pbrMetallicRoughness":{
				"baseColorFactor":[
					0.0017581188585609198,
					0.0017581188585609198,
					0.0017581188585609198,
					1
				],
				"metallicFactor":0
			}
		},
		{
			"doubleSided":true,
			"extensions":{
				"KHR_materials_specular":{
					"specularFactor":0
				},
				"KHR_materials_ior":{
					"ior":1.4500000476837158
				}
			},
			"name":"11762_Earings_beads",
			"pbrMetallicRoughness":{
				"baseColorFactor":[
					0.014035603031516075,
					0.03106805495917797,
					0.8004003763198853,
					1
				],
				"metallicFactor":0
			}
		}
	],
	"meshes":[
		{
			"name":"11762_Earrings_v1_l2.001",
			"primitives":[
				{
					"attributes":{
						"POSITION":0,
						"NORMAL":1,
						"TEXCOORD_0":2
					},
					"indices":3,
					"material":0
				},
				{
					"attributes":{
						"POSITION":4,
						"NORMAL":5,
						"TEXCOORD_0":6
					},
					"indices":7,
					"material":1
				}
			]
		},
		{
			"name":"11762_Earrings_v1_l2",
			"primitives":[
				{
					"attributes":{
						"POSITION":8,
						"NORMAL":9,
						"TEXCOORD_0":10
					},
					"indices":11,
					"material":2
				},
				{
					"attributes":{
						"POSITION":12,
						"NORMAL":13,
						"TEXCOORD_0":14
					},
					"indices":15,
					"material":3
				}
			]
		},
		{
			"name":"11762_Earrings_v1_l2.002",
			"primitives":[
				{
					"attributes":{
						"POSITION":16,
						"NORMAL":17,
						"TEXCOORD_0":18
					},
					"indices":19,
					"material":2
				},
				{
					"attributes":{
						"POSITION":20,
						"NORMAL":21,
						"TEXCOORD_0":22
					},
					"indices":23,
					"material":3
				}
			]
		},
		{
			"name":"11762_Earrings_v1_l2.003",
			"primitives":[
				{
					"attributes":{
						"POSITION":24,
						"NORMAL":25,
						"TEXCOORD_0":26
					},
					"indices":27,
					"material":2
				},
				{
					"attributes":{
						"POSITION":28,
						"NORMAL":29,
						"TEXCOORD_0":30
					},
					"indices":31,
					"material":3
				}
			]
		}
	],
	"accessors":[
		{
			"bufferView":0,
			"componentType":5126,
			"count":69643,
			"max":[
				0.8248999714851379,
				3.0550999641418457,
				0.5270000100135803
			],
			"min":[
				-0.7447999715805054,
				-0.02329999953508377,
				-0.23680000007152557
			],
			"type":"VEC3"
		},
		{
			"bufferView":1,
			"componentType":5126,
			"count":69643,
			"type":"VEC3"
		},
		{
			"bufferView":2,
			"componentType":5126,
			"count":69643,
			"type":"VEC2"
		},
		{
			"bufferView":3,
			"componentType":5125,
			"count":309792,
			"type":"SCALAR"
		},
		{
			"bufferView":4,
			"componentType":5126,
			"count":5238,
			"max":[
				0.5382000207901001,
				1.9611999988555908,
				0.3231000006198883
			],
			"min":[
				-0.5378999710083008,
				1.4716999530792236,
				-0.15850000083446503
			],
			"type":"VEC3"
		},
		{
			"bufferView":5,
			"componentType":5126,
			"count":5238,
			"type":"VEC3"
		},
		{
			"bufferView":6,
			"componentType":5126,
			"count":5238,
			"type":"VEC2"
		},
		{
			"bufferView":7,
			"componentType":5123,
			"count":23040,
			"type":"SCALAR"
		},
		{
			"bufferView":8,
			"componentType":5126,
			"count":69503,
			"max":[
				0.8248999714851379,
				3.0550999641418457,
				0.5270000100135803
			],
			"min":[
				-0.7447999715805054,
				-0.02329999953508377,
				-0.23680000007152557
			],
			"type":"VEC3"
		},
		{
			"bufferView":9,
			"componentType":5126,
			"count":69503,
			"type":"VEC3"
		},
		{
			"bufferView":10,
			"componentType":5126,
			"count":69503,
			"type":"VEC2"
		},
		{
			"bufferView":11,
			"componentType":5125,
			"count":308310,
			"type":"SCALAR"
		},
		{
			"bufferView":12,
			"componentType":5126,
			"count":5232,
			"max":[
				0.5382000207901001,
				1.9611999988555908,
				0.3231000006198883
			],
			"min":[
				-0.5378999710083008,
				1.4716999530792236,
				-0.15850000083446503
			],
			"type":"VEC3"
		},
		{
			"bufferView":13,
			"componentType":5126,
			"count":5232,
			"type":"VEC3"
		},
		{
			"bufferView":14,
			"componentType":5126,
			"count":5232,
			"type":"VEC2"
		},
		{
			"bufferView":15,
			"componentType":5123,
			"count":22944,
			"type":"SCALAR"
		},
		{
			"bufferView":16,
			"componentType":5126,
			"count":353,
			"max":[
				0.8248999714851379,
				3.0513999462127686,
				0.030700000002980232
			],
			"min":[
				-0.10170000046491623,
				0.05609999969601631,
				-0.16179999709129333
			],
			"type":"VEC3"
		},
		{
			"bufferView":17,
			"componentType":5126,
			"count":353,
			"type":"VEC3"
		},
		{
			"bufferView":18,
			"componentType":5126,
			"count":353,
			"type":"VEC2"
		},
		{
			"bufferView":19,
			"componentType":5123,
			"count":840,
			"type":"SCALAR"
		},
		{
			"bufferView":20,
			"componentType":5126,
			"count":28,
			"max":[
				0.5382000207901001,
				1.5298999547958374,
				-0.07050000131130219
			],
			"min":[
				0.21130000054836273,
				1.4981000423431396,
				-0.11509999632835388
			],
			"type":"VEC3"
		},
		{
			"bufferView":21,
			"componentType":5126,
			"count":28,
			"type":"VEC3"
		},
		{
			"bufferView":22,
			"componentType":5126,
			"count":28,
			"type":"VEC2"
		},
		{
			"bufferView":23,
			"componentType":5123,
			"count":54,
			"type":"SCALAR"
		},
		{
			"bufferView":24,
			"componentType":5126,
			"count":283,
			"max":[
				-0.03590000048279762,
				3.045099973678589,
				0.5213000178337097
			],
			"min":[
				-0.70660001039505,
				0.15449999272823334,
				-0.1289999932050705
			],
			"type":"VEC3"
		},
		{
			"bufferView":25,
			"componentType":5126,
			"count":283,
			"type":"VEC3"
		},
		{
			"bufferView":26,
			"componentType":5126,
			"count":283,
			"type":"VEC2"
		},
		{
			"bufferView":27,
			"componentType":5123,
			"count":642,
			"type":"SCALAR"
		},
		{
			"bufferView":28,
			"componentType":5126,
			"count":22,
			"max":[
				-0.22139999270439148,
				1.9479000568389893,
				0.2768000066280365
			],
			"min":[
				-0.4528999924659729,
				1.498900055885315,
				0.06880000233650208
			],
			"type":"VEC3"
		},
		{
			"bufferView":29,
			"componentType":5126,
			"count":22,
			"type":"VEC3"
		},
		{
			"bufferView":30,
			"componentType":5126,
			"count":22,
			"type":"VEC2"
		},
		{
			"bufferView":31,
			"componentType":5123,
			"count":42,
			"type":"SCALAR"
		}
	],
	"bufferViews":[
		{
			"buffer":0,
			"byteLength":835716,
			"byteOffset":0,
			"target":34962
		},
		{
			"buffer":0,
			"byteLength":835716,
			"byteOffset":835716,
			"target":34962
		},
		{
			"buffer":0,
			"byteLength":557144,
			"byteOffset":1671432,
			"target":34962
		},
		{
			"buffer":0,
			"byteLength":1239168,
			"byteOffset":2228576,
			"target":34963
		},
		{
			"buffer":0,
			"byteLength":62856,
			"byteOffset":3467744,
			"target":34962
		},
		{
			"buffer":0,
			"byteLength":62856,
			"byteOffset":3530600,
			"target":34962
		},
		{
			"buffer":0,
			"byteLength":41904,
			"byteOffset":3593456,
			"target":34962
		},
		{
			"buffer":0,
			"byteLength":46080,
			"byteOffset":3635360,
			"target":34963
		},
		{
			"buffer":0,
			"byteLength":834036,
			"byteOffset":3681440,
			"target":34962
		},
		{
			"buffer":0,
			"byteLength":834036,
			"byteOffset":4515476,
			"target":34962
		},
		{
			"buffer":0,
			"byteLength":556024,
			"byteOffset":5349512,
			"target":34962
		},
		{
			"buffer":0,
			"byteLength":1233240,
			"byteOffset":5905536,
			"target":34963
		},
		{
			"buffer":0,
			"byteLength":62784,
			"byteOffset":7138776,
			"target":34962
		},
		{
			"buffer":0,
			"byteLength":62784,
			"byteOffset":7201560,
			"target":34962
		},
		{
			"buffer":0,
			"byteLength":41856,
			"byteOffset":7264344,
			"target":34962
		},
		{
			"buffer":0,
			"byteLength":45888,
			"byteOffset":7306200,
			"target":34963
		},
		{
			"buffer":0,
			"byteLength":4236,
			"byteOffset":7352088,
			"target":34962
		},
		{
			"buffer":0,
			"byteLength":4236,
			"byteOffset":7356324,
			"target":34962
		},
		{
			"buffer":0,
			"byteLength":2824,
			"byteOffset":7360560,
			"target":34962
		},
		{
			"buffer":0,
			"byteLength":1680,
			"byteOffset":7363384,
			"target":34963
		},
		{
			"buffer":0,
			"byteLength":336,
			"byteOffset":7365064,
			"target":34962
		},
		{
			"buffer":0,
			"byteLength":336,
			"byteOffset":7365400,
			"target":34962
		},
		{
			"buffer":0,
			"byteLength":224,
			"byteOffset":7365736,
			"target":34962
		},
		{
			"buffer":0,
			"byteLength":108,
			"byteOffset":7365960,
			"target":34963
		},
		{
			"buffer":0,
			"byteLength":3396,
			"byteOffset":7366068,
			"target":34962
		},
		{
			"buffer":0,
			"byteLength":3396,
			"byteOffset":7369464,
			"target":34962
		},
		{
			"buffer":0,
			"byteLength":2264,
			"byteOffset":7372860,
			"target":34962
		},
		{
			"buffer":0,
			"byteLength":1284,
			"byteOffset":7375124,
			"target":34963
		},
		{
			"buffer":0,
			"byteLength":264,
			"byteOffset":7376408,
			"target":34962
		},
		{
			"buffer":0,
			"byteLength":264,
			"byteOffset":7376672,
			"target":34962
		},
		{
			"buffer":0,
			"byteLength":176,
			"byteOffset":7376936,
			"target":34962
		},
		{
			"buffer":0,
			"byteLength":84,
			"byteOffset":7377112,
			"target":34963
		}
	],
	"buffers":[
		{
			"byteLength":7377196,
			"uri":"untitled20.1.bin"
		}
	]
}
